<?xml version="1.0" standalone="no"?>
<!DOCTYPE svg PUBLIC "-//W3C//DTD SVG 20010904//EN"
 "http://www.w3.org/TR/2001/REC-SVG-20010904/DTD/svg10.dtd">
<svg version="1.0" xmlns="http://www.w3.org/2000/svg"
 width="260.000000pt" height="260.000000pt" viewBox="0 0 260.000000 260.000000"
 preserveAspectRatio="xMidYMid meet">
<metadata>
Created by potrace 1.11, written by Peter Selinger 2001-2013
</metadata>
<g transform="translate(0.000000,260.000000) scale(0.100000,-0.100000)"
fill="#000000" stroke="none">
<path d="M1312 2088 c-6 -6 -12 -20 -12 -29 0 -10 -4 -21 -10 -24 -5 -3 -10
-13 -10 -22 0 -8 -7 -30 -15 -49 -8 -19 -22 -49 -30 -68 -13 -29 -24 -36 -84
-56 -166 -53 -305 -196 -352 -360 -7 -25 -16 -50 -21 -57 -5 -6 -61 -30 -124
-53 -63 -24 -113 -44 -111 -46 2 -3 57 -26 121 -52 l118 -47 21 -65 c58 -172
183 -299 349 -352 69 -22 72 -24 93 -73 12 -27 33 -80 45 -117 12 -38 26 -68
29 -68 7 0 31 59 31 74 0 5 -7 3 -15 -4 -14 -12 -16 -4 -13 71 l3 84 40 1 c22
1 53 7 68 13 16 6 33 11 39 11 6 0 44 16 85 36 52 25 95 56 142 102 74 74 112
134 140 226 10 33 25 64 32 68 8 5 63 27 123 50 99 37 107 43 85 51 -40 17
-81 33 -129 52 -84 32 -91 38 -113 106 -58 171 -175 288 -345 348 -83 29 -81
27 -144 199 -19 50 -26 60 -36 50z m8 -133 l0 -85 -35 0 c-28 0 -35 4 -35 19
0 11 4 22 9 25 5 3 12 18 16 33 9 37 33 93 39 93 4 0 6 -38 6 -85z m143 -140
c120 -36 252 -143 309 -251 57 -106 73 -250 43 -369 -65 -247 -329 -420 -575
-376 -108 20 -215 77 -288 156 -153 163 -185 381 -87 582 51 104 173 210 287
250 96 34 215 37 311 8z m472 -439 c33 -13 68 -27 78 -30 40 -13 2 -25 -65
-21 -39 3 -72 6 -73 7 -8 9 -15 68 -8 68 4 0 35 -11 68 -24z m-1167 -61 c13
-5 17 -65 4 -65 -5 0 -35 11 -68 24 -32 12 -67 26 -77 29 -38 14 -5 25 60 20
38 -2 74 -6 81 -8z"/>
<path d="M1242 1739 c-29 -5 -69 -17 -90 -26 l-37 -17 100 -7 c139 -10 191
-28 267 -97 37 -33 118 -144 118 -162 0 -4 -53 -5 -118 -2 -104 4 -124 2 -165
-16 -62 -28 -87 -69 -87 -145 0 -109 61 -180 215 -253 51 -24 97 -44 102 -44
18 0 91 70 122 117 97 147 92 348 -13 490 -91 125 -257 189 -414 162z m298
-344 c19 -7 29 -14 23 -14 -8 -1 -13 -15 -13 -37 0 -78 -41 -113 -130 -114
-61 0 -67 2 -93 31 -15 17 -27 36 -27 42 0 6 -7 18 -15 27 -14 15 -13 19 11
43 14 14 35 28 47 30 48 9 164 5 197 -8z"/>
<path d="M997 1598 c-20 -24 -49 -71 -64 -104 -25 -53 -28 -70 -28 -169 0
-103 2 -114 32 -177 86 -182 280 -279 476 -239 64 14 73 26 25 36 -61 13 -177
77 -225 124 -151 145 -122 351 61 431 29 14 71 23 107 23 33 1 59 5 59 9 0 14
-75 58 -136 80 -40 14 -92 22 -165 26 l-106 4 -36 -44z"/>
<path d="M1370 705 c-13 -31 -20 -58 -17 -61 6 -6 33 52 43 93 11 41 -3 24
-26 -32z"/>
</g>
</svg>
